<svg xmlns="http://www.w3.org/2000/svg" width="288.477" height="66.244" viewBox="0 0 288.477 66.244">
  <g id="Group_1219" data-name="Group 1219" transform="translate(-22 -18.318)">
    <text id="Logo" transform="translate(97.477 62.504)" fill="#0E7EBF" font-size="28" font-family="SourceSansPro-Bold, Source Sans Pro" font-weight="700" letter-spacing="0.012em"><tspan x="0" y="0">Memory Remedy</tspan></text>
    <g id="Layer_2" data-name="Layer 2" transform="translate(22 18.318)">
      <g id="Layer_1" data-name="Layer 1" transform="translate(0 0)">
        <path id="Path_325" data-name="Path 325" d="M83.952,59.136c-3.614-.126-7.4,0-10.71,2.475a11.46,11.46,0,0,0-2.968,3.352c-1.052,1.739-1.613,1.689-2.579-.122-2.755-5.131-1.54-13.1,2.647-17.485a38.672,38.672,0,0,1,7.878-6.012C86.35,36.32,89.688,28.8,89.332,19.594c-.2-5.131-3.085-9.165-6.776-12.6a30.39,30.39,0,0,0-9.021-5.484c-.452-.194-1.229-.239-1.161-.872.068-.827.908-.619,1.459-.646C86.441-.218,97.286,9.756,97.187,21.676c-.045,4.915.42,9.73,2.914,14.193,1.355,2.444.452,3.921-2.638,4.585-1.649.352-2.331.84-1.473,2.484a5.012,5.012,0,0,1,.149.659C96.762,45.4,93.279,45.4,94.4,47.41c.9,1.653.262,2.859-1.025,3.934-.709.592-.375,1.387-.33,2.118.239,3.889-1.278,5.547-5.195,5.637C86.653,59.167,85.447,59.136,83.952,59.136Z" transform="translate(-36.306 0.011)" fill="#0E7EBF"/>
        <path id="Path_326" data-name="Path 326" d="M36,11.595c-.1,2.656,3.054,5.393,5.551,4.747a3.248,3.248,0,0,1,3.88,1.531,3.306,3.306,0,0,1-.506,4.341c-.781.786-1.626,1.414-1.807,2.71-.217,1.707-.081,2.941,1.545,4.016A4.893,4.893,0,0,1,45.906,35.2a4.725,4.725,0,0,1-6.324,1.739,4.706,4.706,0,0,0-5.023-.226c-1.608.781-3.112,1.323-3.248,3.514-.068,1.075-1.156,1.685-2.15,2.132-2.475,1.12-3.1,2.891-1.924,5.393,1,2.132.578,3.79-1.31,5.086-2.182,1.5-2.534,3.492-.9,5.624a3.45,3.45,0,0,1,.452,3.989,3.353,3.353,0,0,1-3.343,1.857,3.517,3.517,0,0,1-3.356-2.259c-.759-1.585-.063-3.365,1.753-4.612,2.236-1.527,2.5-2.932.994-5.244-1.653-2.543-1.052-4.7,1.7-6.112,2.408-1.238,2.886-2.877,1.807-5.42-.637-1.522-.452-3.338-2.525-4.142-1.382-.538-2.484-.98-4.025-.452-2.39.867-4.449-.768-4.639-3.379-.145-2-3.93-6.879-5.8-7.5a4.062,4.062,0,0,0-1.987.172c-2.024.307-3.943.235-5.217-1.716a5.012,5.012,0,0,1,.117-5.723,4.8,4.8,0,0,1,5.484-1.536c2.168.7,6.2-2.444,6.143-4.8-.045-1.861.452-3.356,2.222-4.02s3.162.054,4.4,1.427c1.631,1.807,6.735,1.491,8.036-.4,1.509-2.177,3.437-2.977,5.551-2.29C35.156,7.077,36.136,8.658,36,11.595ZM30.327,16.9c.032-1.473-1.807-2.633-2.972-1.78a29.171,29.171,0,0,0-4.237,3.69c-1.161,1.242-.7,2.71.9,3.415a8.185,8.185,0,0,0,2.629.741,2.912,2.912,0,0,0,3.433-2.48,33.76,33.76,0,0,0,.244-3.587Zm1.215,2.118c-.032,2.516.813,3.9,2.367,3.889,2,0,5.041-2.484,5.055-4.1,0-1.075-3.2-3.952-4.463-4-1.829-.063-2.927,1.491-2.959,4.21ZM12.281,21.78c-.926.068-2.281-.786-2.995.781s.655,2.3,1.518,3.162a45.485,45.485,0,0,0,3.537,3.121c1.355,1.089,2.557.646,3.04-1.025C18.357,24.391,16.464,22.07,12.281,21.78ZM28.994,29.8c.059-2.082-2.986-5.547-5.366-6.148-.574-.145-1.2-.452-1.68.126s-.154,1.143.117,1.68c.953,1.879,1.807,3.817,2.909,5.6.8,1.287,1.147,3.858,2.475,3.573,1.441-.312,1.116-2.828,1.477-4.4a4.242,4.242,0,0,0,.081-.429ZM36.9,32c.411-2.177-1.545-2.552-2.737-3.365a2.372,2.372,0,0,0-3.194.89c-1.161,1.671-1.161,3.79-1.066,5.818.027.452.519.7.98.836C32.762,36.718,36.791,33.918,36.9,32ZM23.136,11.459c-.822,0-1.423-.023-2.019,0-2.087.077-2.8,1.68-3.04,3.275-.276,1.847,1.071,2.886,2.751,3.23s2.4-1.305,3.478-2.109,2.959-1.613,2.371-3.383S24.2,11.748,23.136,11.459Zm-10.2,8.993h.452a3.2,3.2,0,0,0,3.456-2.335,3.236,3.236,0,0,0-.9-3.7c-1.486-1.125-2.841-.33-3.98.836-.366.37-.872.605-1.22.989-.723.795-2,1.355-1.54,2.746s1.775,1.17,2.841,1.4a5.348,5.348,0,0,0,.894.063Zm28.475,5.009c0-2.015-.687-3-2.164-3.054-1.644-.059-4.915,2.073-4.969,3.239-.059,1.328,2.259,3.288,3.812,3.243a3.293,3.293,0,0,0,3.32-3.428ZM24.924,36.032l.632-.4c-1.644-3.221-3.261-6.455-4.946-9.653-.452-.827-1.08-.849-1.4.113-.452,1.292-.714,2.629.307,3.817a3.962,3.962,0,0,1,1.256,2.078c.244,2.606,2.29,3.207,4.151,4.038Z" transform="translate(0.001 -3.324)" fill="#0E7EBF"/>
      </g>
    </g>
  </g>
</svg>
